<?xml version="1.0" encoding="utf-8" standalone="no"?>
<!DOCTYPE svg PUBLIC "-//W3C//DTD SVG 1.1//EN"
  "http://www.w3.org/Graphics/SVG/1.1/DTD/svg11.dtd">
<svg xmlns:xlink="http://www.w3.org/1999/xlink" width="388.513779pt" height="306.39914pt" viewBox="0 0 388.513779 306.39914" xmlns="http://www.w3.org/2000/svg" version="1.1">
 <metadata>
  <rdf:RDF xmlns:dc="http://purl.org/dc/elements/1.1/" xmlns:cc="http://creativecommons.org/ns#" xmlns:rdf="http://www.w3.org/1999/02/22-rdf-syntax-ns#">
   <cc:Work>
    <dc:type rdf:resource="http://purl.org/dc/dcmitype/StillImage"/>
    <dc:date>2025-10-01T12:02:45.193067</dc:date>
    <dc:format>image/svg+xml</dc:format>
    <dc:creator>
     <cc:Agent>
      <dc:title>Matplotlib v3.8.4, https://matplotlib.org/</dc:title>
     </cc:Agent>
    </dc:creator>
   </cc:Work>
  </rdf:RDF>
 </metadata>
 <defs>
  <style type="text/css">*{stroke-linejoin: round; stroke-linecap: butt}</style>
 </defs>
 <g id="figure_1">
  <g id="patch_1">
   <path d="M 0 306.39914 
L 388.513779 306.39914 
L 388.513779 0 
L 0 0 
z
" style="fill: #ffffff"/>
  </g>
  <g id="axes_1">
   <g id="patch_2">
    <path d="M 320.622655 161.8672 
C 320.622655 144.394446 317.180904 127.091593 310.49437 110.948873 
C 303.807837 94.806154 294.006558 80.137503 281.651455 67.7824 
C 269.296352 55.427297 254.627702 45.626018 238.484982 38.939485 
C 222.342262 32.252952 205.039409 28.8112 187.566655 28.8112 
C 170.093901 28.8112 152.791048 32.252952 136.648329 38.939485 
C 120.505609 45.626018 105.836958 55.427297 93.481855 67.7824 
C 81.126753 80.137503 71.325474 94.806154 64.63894 110.948873 
C 57.952407 127.091593 54.510655 144.394446 54.510655 161.8672 
C 54.510655 179.339954 57.952407 196.642807 64.63894 212.785527 
C 71.325474 228.928246 81.126753 243.596897 93.481855 255.952 
C 105.836958 268.307103 120.505609 278.108382 136.648329 284.794915 
C 152.791048 291.481448 170.093901 294.9232 187.566655 294.9232 
C 205.039409 294.9232 222.342262 291.481448 238.484982 284.794915 
C 254.627702 278.108382 269.296352 268.307103 281.651455 255.952 
C 294.006558 243.596897 303.807837 228.928246 310.49437 212.785527 
C 317.180904 196.642807 320.622655 179.339954 320.622655 161.8672 
M 187.566655 161.8672 
C 187.566655 161.8672 187.566655 161.8672 187.566655 161.8672 
C 187.566655 161.8672 187.566655 161.8672 187.566655 161.8672 
C 187.566655 161.8672 187.566655 161.8672 187.566655 161.8672 
C 187.566655 161.8672 187.566655 161.8672 187.566655 161.8672 
C 187.566655 161.8672 187.566655 161.8672 187.566655 161.8672 
C 187.566655 161.8672 187.566655 161.8672 187.566655 161.8672 
C 187.566655 161.8672 187.566655 161.8672 187.566655 161.8672 
C 187.566655 161.8672 187.566655 161.8672 187.566655 161.8672 
C 187.566655 161.8672 187.566655 161.8672 187.566655 161.8672 
C 187.566655 161.8672 187.566655 161.8672 187.566655 161.8672 
C 187.566655 161.8672 187.566655 161.8672 187.566655 161.8672 
C 187.566655 161.8672 187.566655 161.8672 187.566655 161.8672 
C 187.566655 161.8672 187.566655 161.8672 187.566655 161.8672 
C 187.566655 161.8672 187.566655 161.8672 187.566655 161.8672 
C 187.566655 161.8672 187.566655 161.8672 187.566655 161.8672 
C 187.566655 161.8672 187.566655 161.8672 187.566655 161.8672 
z
" style="fill: #ffffff"/>
   </g>
   <g id="patch_3">
    <path d="M 187.566655 75.3808 
L 291.594025 78.908141 
L 219.996657 169.269136 
L 216.432073 221.806857 
L 129.835821 281.746514 
L 128.650536 175.31442 
L 118.215075 106.561161 
z
" clip-path="url(#p155dc0ab84)" style="fill: #1f77b4; opacity: 0.12"/>
   </g>
   <g id="patch_4">
    <path d="M 187.566655 48.7696 
L 187.566655 161.8672 
L 284.856662 184.073009 
L 216.432073 221.806857 
L 129.835821 281.746514 
L 131.742302 174.608744 
L 142.013911 125.540099 
z
" clip-path="url(#p155dc0ab84)" style="fill: #ff7f0e; opacity: 0.12"/>
   </g>
   <g id="patch_5">
    <path d="M 187.566655 51.234559 
L 233.332908 125.369832 
L 284.856662 184.073009 
L 216.432073 221.806857 
L 129.835821 281.746514 
L 66.943253 189.398704 
L 152.890865 134.21418 
z
" clip-path="url(#p155dc0ab84)" style="fill: #2ca02c; opacity: 0.12"/>
   </g>
   <g id="matplotlib.axis_1">
    <g id="xtick_1">
     <g id="line2d_1">
      <path d="M 187.566655 161.8672 
L 187.566655 28.8112 
" clip-path="url(#p155dc0ab84)" style="fill: none; stroke: #b0b0b0; stroke-width: 0.8; stroke-linecap: square"/>
     </g>
     <g id="text_1">
      <!-- Robustness -->
      <g transform="translate(158.895562 17.570575) scale(0.1 -0.1)">
       <defs>
        <path id="DejaVuSans-52" d="M 2841 2188 
Q 3044 2119 3236 1894 
Q 3428 1669 3622 1275 
L 4263 0 
L 3584 0 
L 2988 1197 
Q 2756 1666 2539 1819 
Q 2322 1972 1947 1972 
L 1259 1972 
L 1259 0 
L 628 0 
L 628 4666 
L 2053 4666 
Q 2853 4666 3247 4331 
Q 3641 3997 3641 3322 
Q 3641 2881 3436 2590 
Q 3231 2300 2841 2188 
z
M 1259 4147 
L 1259 2491 
L 2053 2491 
Q 2509 2491 2742 2702 
Q 2975 2913 2975 3322 
Q 2975 3731 2742 3939 
Q 2509 4147 2053 4147 
L 1259 4147 
z
" transform="scale(0.015625)"/>
        <path id="DejaVuSans-6f" d="M 1959 3097 
Q 1497 3097 1228 2736 
Q 959 2375 959 1747 
Q 959 1119 1226 758 
Q 1494 397 1959 397 
Q 2419 397 2687 759 
Q 2956 1122 2956 1747 
Q 2956 2369 2687 2733 
Q 2419 3097 1959 3097 
z
M 1959 3584 
Q 2709 3584 3137 3096 
Q 3566 2609 3566 1747 
Q 3566 888 3137 398 
Q 2709 -91 1959 -91 
Q 1206 -91 779 398 
Q 353 888 353 1747 
Q 353 2609 779 3096 
Q 1206 3584 1959 3584 
z
" transform="scale(0.015625)"/>
        <path id="DejaVuSans-62" d="M 3116 1747 
Q 3116 2381 2855 2742 
Q 2594 3103 2138 3103 
Q 1681 3103 1420 2742 
Q 1159 2381 1159 1747 
Q 1159 1113 1420 752 
Q 1681 391 2138 391 
Q 2594 391 2855 752 
Q 3116 1113 3116 1747 
z
M 1159 2969 
Q 1341 3281 1617 3432 
Q 1894 3584 2278 3584 
Q 2916 3584 3314 3078 
Q 3713 2572 3713 1747 
Q 3713 922 3314 415 
Q 2916 -91 2278 -91 
Q 1894 -91 1617 61 
Q 1341 213 1159 525 
L 1159 0 
L 581 0 
L 581 4863 
L 1159 4863 
L 1159 2969 
z
" transform="scale(0.015625)"/>
        <path id="DejaVuSans-75" d="M 544 1381 
L 544 3500 
L 1119 3500 
L 1119 1403 
Q 1119 906 1312 657 
Q 1506 409 1894 409 
Q 2359 409 2629 706 
Q 2900 1003 2900 1516 
L 2900 3500 
L 3475 3500 
L 3475 0 
L 2900 0 
L 2900 538 
Q 2691 219 2414 64 
Q 2138 -91 1772 -91 
Q 1169 -91 856 284 
Q 544 659 544 1381 
z
M 1991 3584 
L 1991 3584 
z
" transform="scale(0.015625)"/>
        <path id="DejaVuSans-73" d="M 2834 3397 
L 2834 2853 
Q 2591 2978 2328 3040 
Q 2066 3103 1784 3103 
Q 1356 3103 1142 2972 
Q 928 2841 928 2578 
Q 928 2378 1081 2264 
Q 1234 2150 1697 2047 
L 1894 2003 
Q 2506 1872 2764 1633 
Q 3022 1394 3022 966 
Q 3022 478 2636 193 
Q 2250 -91 1575 -91 
Q 1294 -91 989 -36 
Q 684 19 347 128 
L 347 722 
Q 666 556 975 473 
Q 1284 391 1588 391 
Q 1994 391 2212 530 
Q 2431 669 2431 922 
Q 2431 1156 2273 1281 
Q 2116 1406 1581 1522 
L 1381 1569 
Q 847 1681 609 1914 
Q 372 2147 372 2553 
Q 372 3047 722 3315 
Q 1072 3584 1716 3584 
Q 2034 3584 2315 3537 
Q 2597 3491 2834 3397 
z
" transform="scale(0.015625)"/>
        <path id="DejaVuSans-74" d="M 1172 4494 
L 1172 3500 
L 2356 3500 
L 2356 3053 
L 1172 3053 
L 1172 1153 
Q 1172 725 1289 603 
Q 1406 481 1766 481 
L 2356 481 
L 2356 0 
L 1766 0 
Q 1100 0 847 248 
Q 594 497 594 1153 
L 594 3053 
L 172 3053 
L 172 3500 
L 594 3500 
L 594 4494 
L 1172 4494 
z
" transform="scale(0.015625)"/>
        <path id="DejaVuSans-6e" d="M 3513 2113 
L 3513 0 
L 2938 0 
L 2938 2094 
Q 2938 2591 2744 2837 
Q 2550 3084 2163 3084 
Q 1697 3084 1428 2787 
Q 1159 2491 1159 1978 
L 1159 0 
L 581 0 
L 581 3500 
L 1159 3500 
L 1159 2956 
Q 1366 3272 1645 3428 
Q 1925 3584 2291 3584 
Q 2894 3584 3203 3211 
Q 3513 2838 3513 2113 
z
" transform="scale(0.015625)"/>
        <path id="DejaVuSans-65" d="M 3597 1894 
L 3597 1613 
L 953 1613 
Q 991 1019 1311 708 
Q 1631 397 2203 397 
Q 2534 397 2845 478 
Q 3156 559 3463 722 
L 3463 178 
Q 3153 47 2828 -22 
Q 2503 -91 2169 -91 
Q 1331 -91 842 396 
Q 353 884 353 1716 
Q 353 2575 817 3079 
Q 1281 3584 2069 3584 
Q 2775 3584 3186 3129 
Q 3597 2675 3597 1894 
z
M 3022 2063 
Q 3016 2534 2758 2815 
Q 2500 3097 2075 3097 
Q 1594 3097 1305 2825 
Q 1016 2553 972 2059 
L 3022 2063 
z
" transform="scale(0.015625)"/>
       </defs>
       <use xlink:href="#DejaVuSans-52"/>
       <use xlink:href="#DejaVuSans-6f" x="64.982422"/>
       <use xlink:href="#DejaVuSans-62" x="126.164062"/>
       <use xlink:href="#DejaVuSans-75" x="189.640625"/>
       <use xlink:href="#DejaVuSans-73" x="253.019531"/>
       <use xlink:href="#DejaVuSans-74" x="305.119141"/>
       <use xlink:href="#DejaVuSans-6e" x="344.328125"/>
       <use xlink:href="#DejaVuSans-65" x="407.707031"/>
       <use xlink:href="#DejaVuSans-73" x="469.230469"/>
       <use xlink:href="#DejaVuSans-73" x="521.330078"/>
      </g>
     </g>
    </g>
    <g id="xtick_2">
     <g id="line2d_2">
      <path d="M 187.566655 161.8672 
L 291.594025 78.908141 
" clip-path="url(#p155dc0ab84)" style="fill: none; stroke: #b0b0b0; stroke-width: 0.8; stroke-linecap: square"/>
     </g>
     <g id="text_2">
      <!-- Control Efficiency -->
      <g transform="translate(258.718572 72.938659) scale(0.1 -0.1)">
       <defs>
        <path id="DejaVuSans-43" d="M 4122 4306 
L 4122 3641 
Q 3803 3938 3442 4084 
Q 3081 4231 2675 4231 
Q 1875 4231 1450 3742 
Q 1025 3253 1025 2328 
Q 1025 1406 1450 917 
Q 1875 428 2675 428 
Q 3081 428 3442 575 
Q 3803 722 4122 1019 
L 4122 359 
Q 3791 134 3420 21 
Q 3050 -91 2638 -91 
Q 1578 -91 968 557 
Q 359 1206 359 2328 
Q 359 3453 968 4101 
Q 1578 4750 2638 4750 
Q 3056 4750 3426 4639 
Q 3797 4528 4122 4306 
z
" transform="scale(0.015625)"/>
        <path id="DejaVuSans-72" d="M 2631 2963 
Q 2534 3019 2420 3045 
Q 2306 3072 2169 3072 
Q 1681 3072 1420 2755 
Q 1159 2438 1159 1844 
L 1159 0 
L 581 0 
L 581 3500 
L 1159 3500 
L 1159 2956 
Q 1341 3275 1631 3429 
Q 1922 3584 2338 3584 
Q 2397 3584 2469 3576 
Q 2541 3569 2628 3553 
L 2631 2963 
z
" transform="scale(0.015625)"/>
        <path id="DejaVuSans-6c" d="M 603 4863 
L 1178 4863 
L 1178 0 
L 603 0 
L 603 4863 
z
" transform="scale(0.015625)"/>
        <path id="DejaVuSans-20" transform="scale(0.015625)"/>
        <path id="DejaVuSans-45" d="M 628 4666 
L 3578 4666 
L 3578 4134 
L 1259 4134 
L 1259 2753 
L 3481 2753 
L 3481 2222 
L 1259 2222 
L 1259 531 
L 3634 531 
L 3634 0 
L 628 0 
L 628 4666 
z
" transform="scale(0.015625)"/>
        <path id="DejaVuSans-66" d="M 2375 4863 
L 2375 4384 
L 1825 4384 
Q 1516 4384 1395 4259 
Q 1275 4134 1275 3809 
L 1275 3500 
L 2222 3500 
L 2222 3053 
L 1275 3053 
L 1275 0 
L 697 0 
L 697 3053 
L 147 3053 
L 147 3500 
L 697 3500 
L 697 3744 
Q 697 4328 969 4595 
Q 1241 4863 1831 4863 
L 2375 4863 
z
" transform="scale(0.015625)"/>
        <path id="DejaVuSans-69" d="M 603 3500 
L 1178 3500 
L 1178 0 
L 603 0 
L 603 3500 
z
M 603 4863 
L 1178 4863 
L 1178 4134 
L 603 4134 
L 603 4863 
z
" transform="scale(0.015625)"/>
        <path id="DejaVuSans-63" d="M 3122 3366 
L 3122 2828 
Q 2878 2963 2633 3030 
Q 2388 3097 2138 3097 
Q 1578 3097 1268 2742 
Q 959 2388 959 1747 
Q 959 1106 1268 751 
Q 1578 397 2138 397 
Q 2388 397 2633 464 
Q 2878 531 3122 666 
L 3122 134 
Q 2881 22 2623 -34 
Q 2366 -91 2075 -91 
Q 1284 -91 818 406 
Q 353 903 353 1747 
Q 353 2603 823 3093 
Q 1294 3584 2113 3584 
Q 2378 3584 2631 3529 
Q 2884 3475 3122 3366 
z
" transform="scale(0.015625)"/>
        <path id="DejaVuSans-79" d="M 2059 -325 
Q 1816 -950 1584 -1140 
Q 1353 -1331 966 -1331 
L 506 -1331 
L 506 -850 
L 844 -850 
Q 1081 -850 1212 -737 
Q 1344 -625 1503 -206 
L 1606 56 
L 191 3500 
L 800 3500 
L 1894 763 
L 2988 3500 
L 3597 3500 
L 2059 -325 
z
" transform="scale(0.015625)"/>
       </defs>
       <use xlink:href="#DejaVuSans-43"/>
       <use xlink:href="#DejaVuSans-6f" x="69.824219"/>
       <use xlink:href="#DejaVuSans-6e" x="131.005859"/>
       <use xlink:href="#DejaVuSans-74" x="194.384766"/>
       <use xlink:href="#DejaVuSans-72" x="233.59375"/>
       <use xlink:href="#DejaVuSans-6f" x="272.457031"/>
       <use xlink:href="#DejaVuSans-6c" x="333.638672"/>
       <use xlink:href="#DejaVuSans-20" x="361.421875"/>
       <use xlink:href="#DejaVuSans-45" x="393.208984"/>
       <use xlink:href="#DejaVuSans-66" x="456.392578"/>
       <use xlink:href="#DejaVuSans-66" x="491.597656"/>
       <use xlink:href="#DejaVuSans-69" x="526.802734"/>
       <use xlink:href="#DejaVuSans-63" x="554.585938"/>
       <use xlink:href="#DejaVuSans-69" x="609.566406"/>
       <use xlink:href="#DejaVuSans-65" x="637.349609"/>
       <use xlink:href="#DejaVuSans-6e" x="698.873047"/>
       <use xlink:href="#DejaVuSans-63" x="762.251953"/>
       <use xlink:href="#DejaVuSans-79" x="817.232422"/>
      </g>
     </g>
    </g>
    <g id="xtick_3">
     <g id="line2d_3">
      <path d="M 187.566655 161.8672 
L 317.286664 191.474945 
" clip-path="url(#p155dc0ab84)" style="fill: none; stroke: #b0b0b0; stroke-width: 0.8; stroke-linecap: square"/>
     </g>
     <g id="text_3">
      <!-- Oscillation Damping -->
      <g transform="translate(280.557529 197.349613) scale(0.1 -0.1)">
       <defs>
        <path id="DejaVuSans-4f" d="M 2522 4238 
Q 1834 4238 1429 3725 
Q 1025 3213 1025 2328 
Q 1025 1447 1429 934 
Q 1834 422 2522 422 
Q 3209 422 3611 934 
Q 4013 1447 4013 2328 
Q 4013 3213 3611 3725 
Q 3209 4238 2522 4238 
z
M 2522 4750 
Q 3503 4750 4090 4092 
Q 4678 3434 4678 2328 
Q 4678 1225 4090 567 
Q 3503 -91 2522 -91 
Q 1538 -91 948 565 
Q 359 1222 359 2328 
Q 359 3434 948 4092 
Q 1538 4750 2522 4750 
z
" transform="scale(0.015625)"/>
        <path id="DejaVuSans-61" d="M 2194 1759 
Q 1497 1759 1228 1600 
Q 959 1441 959 1056 
Q 959 750 1161 570 
Q 1363 391 1709 391 
Q 2188 391 2477 730 
Q 2766 1069 2766 1631 
L 2766 1759 
L 2194 1759 
z
M 3341 1997 
L 3341 0 
L 2766 0 
L 2766 531 
Q 2569 213 2275 61 
Q 1981 -91 1556 -91 
Q 1019 -91 701 211 
Q 384 513 384 1019 
Q 384 1609 779 1909 
Q 1175 2209 1959 2209 
L 2766 2209 
L 2766 2266 
Q 2766 2663 2505 2880 
Q 2244 3097 1772 3097 
Q 1472 3097 1187 3025 
Q 903 2953 641 2809 
L 641 3341 
Q 956 3463 1253 3523 
Q 1550 3584 1831 3584 
Q 2591 3584 2966 3190 
Q 3341 2797 3341 1997 
z
" transform="scale(0.015625)"/>
        <path id="DejaVuSans-44" d="M 1259 4147 
L 1259 519 
L 2022 519 
Q 2988 519 3436 956 
Q 3884 1394 3884 2338 
Q 3884 3275 3436 3711 
Q 2988 4147 2022 4147 
L 1259 4147 
z
M 628 4666 
L 1925 4666 
Q 3281 4666 3915 4102 
Q 4550 3538 4550 2338 
Q 4550 1131 3912 565 
Q 3275 0 1925 0 
L 628 0 
L 628 4666 
z
" transform="scale(0.015625)"/>
        <path id="DejaVuSans-6d" d="M 3328 2828 
Q 3544 3216 3844 3400 
Q 4144 3584 4550 3584 
Q 5097 3584 5394 3201 
Q 5691 2819 5691 2113 
L 5691 0 
L 5113 0 
L 5113 2094 
Q 5113 2597 4934 2840 
Q 4756 3084 4391 3084 
Q 3944 3084 3684 2787 
Q 3425 2491 3425 1978 
L 3425 0 
L 2847 0 
L 2847 2094 
Q 2847 2600 2669 2842 
Q 2491 3084 2119 3084 
Q 1678 3084 1418 2786 
Q 1159 2488 1159 1978 
L 1159 0 
L 581 0 
L 581 3500 
L 1159 3500 
L 1159 2956 
Q 1356 3278 1631 3431 
Q 1906 3584 2284 3584 
Q 2666 3584 2933 3390 
Q 3200 3197 3328 2828 
z
" transform="scale(0.015625)"/>
        <path id="DejaVuSans-70" d="M 1159 525 
L 1159 -1331 
L 581 -1331 
L 581 3500 
L 1159 3500 
L 1159 2969 
Q 1341 3281 1617 3432 
Q 1894 3584 2278 3584 
Q 2916 3584 3314 3078 
Q 3713 2572 3713 1747 
Q 3713 922 3314 415 
Q 2916 -91 2278 -91 
Q 1894 -91 1617 61 
Q 1341 213 1159 525 
z
M 3116 1747 
Q 3116 2381 2855 2742 
Q 2594 3103 2138 3103 
Q 1681 3103 1420 2742 
Q 1159 2381 1159 1747 
Q 1159 1113 1420 752 
Q 1681 391 2138 391 
Q 2594 391 2855 752 
Q 3116 1113 3116 1747 
z
" transform="scale(0.015625)"/>
        <path id="DejaVuSans-67" d="M 2906 1791 
Q 2906 2416 2648 2759 
Q 2391 3103 1925 3103 
Q 1463 3103 1205 2759 
Q 947 2416 947 1791 
Q 947 1169 1205 825 
Q 1463 481 1925 481 
Q 2391 481 2648 825 
Q 2906 1169 2906 1791 
z
M 3481 434 
Q 3481 -459 3084 -895 
Q 2688 -1331 1869 -1331 
Q 1566 -1331 1297 -1286 
Q 1028 -1241 775 -1147 
L 775 -588 
Q 1028 -725 1275 -790 
Q 1522 -856 1778 -856 
Q 2344 -856 2625 -561 
Q 2906 -266 2906 331 
L 2906 616 
Q 2728 306 2450 153 
Q 2172 0 1784 0 
Q 1141 0 747 490 
Q 353 981 353 1791 
Q 353 2603 747 3093 
Q 1141 3584 1784 3584 
Q 2172 3584 2450 3431 
Q 2728 3278 2906 2969 
L 2906 3500 
L 3481 3500 
L 3481 434 
z
" transform="scale(0.015625)"/>
       </defs>
       <use xlink:href="#DejaVuSans-4f"/>
       <use xlink:href="#DejaVuSans-73" x="78.710938"/>
       <use xlink:href="#DejaVuSans-63" x="130.810547"/>
       <use xlink:href="#DejaVuSans-69" x="185.791016"/>
       <use xlink:href="#DejaVuSans-6c" x="213.574219"/>
       <use xlink:href="#DejaVuSans-6c" x="241.357422"/>
       <use xlink:href="#DejaVuSans-61" x="269.140625"/>
       <use xlink:href="#DejaVuSans-74" x="330.419922"/>
       <use xlink:href="#DejaVuSans-69" x="369.628906"/>
       <use xlink:href="#DejaVuSans-6f" x="397.412109"/>
       <use xlink:href="#DejaVuSans-6e" x="458.59375"/>
       <use xlink:href="#DejaVuSans-20" x="521.972656"/>
       <use xlink:href="#DejaVuSans-44" x="553.759766"/>
       <use xlink:href="#DejaVuSans-61" x="630.761719"/>
       <use xlink:href="#DejaVuSans-6d" x="692.041016"/>
       <use xlink:href="#DejaVuSans-70" x="789.453125"/>
       <use xlink:href="#DejaVuSans-69" x="852.929688"/>
       <use xlink:href="#DejaVuSans-6e" x="880.712891"/>
       <use xlink:href="#DejaVuSans-67" x="944.091797"/>
      </g>
     </g>
    </g>
    <g id="xtick_4">
     <g id="line2d_4">
      <path d="M 187.566655 161.8672 
L 245.29749 281.746514 
" clip-path="url(#p155dc0ab84)" style="fill: none; stroke: #b0b0b0; stroke-width: 0.8; stroke-linecap: square"/>
     </g>
     <g id="text_4">
      <!-- Thermal Resilience -->
      <g transform="translate(204.023425 297.119453) scale(0.1 -0.1)">
       <defs>
        <path id="DejaVuSans-54" d="M -19 4666 
L 3928 4666 
L 3928 4134 
L 2272 4134 
L 2272 0 
L 1638 0 
L 1638 4134 
L -19 4134 
L -19 4666 
z
" transform="scale(0.015625)"/>
        <path id="DejaVuSans-68" d="M 3513 2113 
L 3513 0 
L 2938 0 
L 2938 2094 
Q 2938 2591 2744 2837 
Q 2550 3084 2163 3084 
Q 1697 3084 1428 2787 
Q 1159 2491 1159 1978 
L 1159 0 
L 581 0 
L 581 4863 
L 1159 4863 
L 1159 2956 
Q 1366 3272 1645 3428 
Q 1925 3584 2291 3584 
Q 2894 3584 3203 3211 
Q 3513 2838 3513 2113 
z
" transform="scale(0.015625)"/>
       </defs>
       <use xlink:href="#DejaVuSans-54"/>
       <use xlink:href="#DejaVuSans-68" x="61.083984"/>
       <use xlink:href="#DejaVuSans-65" x="124.462891"/>
       <use xlink:href="#DejaVuSans-72" x="185.986328"/>
       <use xlink:href="#DejaVuSans-6d" x="225.349609"/>
       <use xlink:href="#DejaVuSans-61" x="322.761719"/>
       <use xlink:href="#DejaVuSans-6c" x="384.041016"/>
       <use xlink:href="#DejaVuSans-20" x="411.824219"/>
       <use xlink:href="#DejaVuSans-52" x="443.611328"/>
       <use xlink:href="#DejaVuSans-65" x="508.59375"/>
       <use xlink:href="#DejaVuSans-73" x="570.117188"/>
       <use xlink:href="#DejaVuSans-69" x="622.216797"/>
       <use xlink:href="#DejaVuSans-6c" x="650"/>
       <use xlink:href="#DejaVuSans-69" x="677.783203"/>
       <use xlink:href="#DejaVuSans-65" x="705.566406"/>
       <use xlink:href="#DejaVuSans-6e" x="767.089844"/>
       <use xlink:href="#DejaVuSans-63" x="830.46875"/>
       <use xlink:href="#DejaVuSans-65" x="885.449219"/>
      </g>
     </g>
    </g>
    <g id="xtick_5">
     <g id="line2d_5">
      <path d="M 187.566655 161.8672 
L 129.835821 281.746514 
" clip-path="url(#p155dc0ab84)" style="fill: none; stroke: #b0b0b0; stroke-width: 0.8; stroke-linecap: square"/>
     </g>
     <g id="text_5">
      <!-- Stability -->
      <g transform="translate(103.302073 297.119453) scale(0.1 -0.1)">
       <defs>
        <path id="DejaVuSans-53" d="M 3425 4513 
L 3425 3897 
Q 3066 4069 2747 4153 
Q 2428 4238 2131 4238 
Q 1616 4238 1336 4038 
Q 1056 3838 1056 3469 
Q 1056 3159 1242 3001 
Q 1428 2844 1947 2747 
L 2328 2669 
Q 3034 2534 3370 2195 
Q 3706 1856 3706 1288 
Q 3706 609 3251 259 
Q 2797 -91 1919 -91 
Q 1588 -91 1214 -16 
Q 841 59 441 206 
L 441 856 
Q 825 641 1194 531 
Q 1563 422 1919 422 
Q 2459 422 2753 634 
Q 3047 847 3047 1241 
Q 3047 1584 2836 1778 
Q 2625 1972 2144 2069 
L 1759 2144 
Q 1053 2284 737 2584 
Q 422 2884 422 3419 
Q 422 4038 858 4394 
Q 1294 4750 2059 4750 
Q 2388 4750 2728 4690 
Q 3069 4631 3425 4513 
z
" transform="scale(0.015625)"/>
       </defs>
       <use xlink:href="#DejaVuSans-53"/>
       <use xlink:href="#DejaVuSans-74" x="63.476562"/>
       <use xlink:href="#DejaVuSans-61" x="102.685547"/>
       <use xlink:href="#DejaVuSans-62" x="163.964844"/>
       <use xlink:href="#DejaVuSans-69" x="227.441406"/>
       <use xlink:href="#DejaVuSans-6c" x="255.224609"/>
       <use xlink:href="#DejaVuSans-69" x="283.007812"/>
       <use xlink:href="#DejaVuSans-74" x="310.791016"/>
       <use xlink:href="#DejaVuSans-79" x="350"/>
      </g>
     </g>
    </g>
    <g id="xtick_6">
     <g id="line2d_6">
      <path d="M 187.566655 161.8672 
L 57.846647 191.474945 
" clip-path="url(#p155dc0ab84)" style="fill: none; stroke: #b0b0b0; stroke-width: 0.8; stroke-linecap: square"/>
     </g>
     <g id="text_6">
      <!-- Load Following -->
      <g transform="translate(7.2 197.349613) scale(0.1 -0.1)">
       <defs>
        <path id="DejaVuSans-4c" d="M 628 4666 
L 1259 4666 
L 1259 531 
L 3531 531 
L 3531 0 
L 628 0 
L 628 4666 
z
" transform="scale(0.015625)"/>
        <path id="DejaVuSans-64" d="M 2906 2969 
L 2906 4863 
L 3481 4863 
L 3481 0 
L 2906 0 
L 2906 525 
Q 2725 213 2448 61 
Q 2172 -91 1784 -91 
Q 1150 -91 751 415 
Q 353 922 353 1747 
Q 353 2572 751 3078 
Q 1150 3584 1784 3584 
Q 2172 3584 2448 3432 
Q 2725 3281 2906 2969 
z
M 947 1747 
Q 947 1113 1208 752 
Q 1469 391 1925 391 
Q 2381 391 2643 752 
Q 2906 1113 2906 1747 
Q 2906 2381 2643 2742 
Q 2381 3103 1925 3103 
Q 1469 3103 1208 2742 
Q 947 2381 947 1747 
z
" transform="scale(0.015625)"/>
        <path id="DejaVuSans-46" d="M 628 4666 
L 3309 4666 
L 3309 4134 
L 1259 4134 
L 1259 2759 
L 3109 2759 
L 3109 2228 
L 1259 2228 
L 1259 0 
L 628 0 
L 628 4666 
z
" transform="scale(0.015625)"/>
        <path id="DejaVuSans-77" d="M 269 3500 
L 844 3500 
L 1563 769 
L 2278 3500 
L 2956 3500 
L 3675 769 
L 4391 3500 
L 4966 3500 
L 4050 0 
L 3372 0 
L 2619 2869 
L 1863 0 
L 1184 0 
L 269 3500 
z
" transform="scale(0.015625)"/>
       </defs>
       <use xlink:href="#DejaVuSans-4c"/>
       <use xlink:href="#DejaVuSans-6f" x="53.962891"/>
       <use xlink:href="#DejaVuSans-61" x="115.144531"/>
       <use xlink:href="#DejaVuSans-64" x="176.423828"/>
       <use xlink:href="#DejaVuSans-20" x="239.900391"/>
       <use xlink:href="#DejaVuSans-46" x="271.6875"/>
       <use xlink:href="#DejaVuSans-6f" x="325.582031"/>
       <use xlink:href="#DejaVuSans-6c" x="386.763672"/>
       <use xlink:href="#DejaVuSans-6c" x="414.546875"/>
       <use xlink:href="#DejaVuSans-6f" x="442.330078"/>
       <use xlink:href="#DejaVuSans-77" x="503.511719"/>
       <use xlink:href="#DejaVuSans-69" x="585.298828"/>
       <use xlink:href="#DejaVuSans-6e" x="613.082031"/>
       <use xlink:href="#DejaVuSans-67" x="676.460938"/>
      </g>
     </g>
    </g>
    <g id="xtick_7">
     <g id="line2d_7">
      <path d="M 187.566655 161.8672 
L 83.539286 78.908141 
" clip-path="url(#p155dc0ab84)" style="fill: none; stroke: #b0b0b0; stroke-width: 0.8; stroke-linecap: square"/>
     </g>
     <g id="text_7">
      <!-- Actuator Preservation -->
      <g transform="translate(18.370207 72.938659) scale(0.1 -0.1)">
       <defs>
        <path id="DejaVuSans-41" d="M 2188 4044 
L 1331 1722 
L 3047 1722 
L 2188 4044 
z
M 1831 4666 
L 2547 4666 
L 4325 0 
L 3669 0 
L 3244 1197 
L 1141 1197 
L 716 0 
L 50 0 
L 1831 4666 
z
" transform="scale(0.015625)"/>
        <path id="DejaVuSans-50" d="M 1259 4147 
L 1259 2394 
L 2053 2394 
Q 2494 2394 2734 2622 
Q 2975 2850 2975 3272 
Q 2975 3691 2734 3919 
Q 2494 4147 2053 4147 
L 1259 4147 
z
M 628 4666 
L 2053 4666 
Q 2838 4666 3239 4311 
Q 3641 3956 3641 3272 
Q 3641 2581 3239 2228 
Q 2838 1875 2053 1875 
L 1259 1875 
L 1259 0 
L 628 0 
L 628 4666 
z
" transform="scale(0.015625)"/>
        <path id="DejaVuSans-76" d="M 191 3500 
L 800 3500 
L 1894 563 
L 2988 3500 
L 3597 3500 
L 2284 0 
L 1503 0 
L 191 3500 
z
" transform="scale(0.015625)"/>
       </defs>
       <use xlink:href="#DejaVuSans-41"/>
       <use xlink:href="#DejaVuSans-63" x="66.658203"/>
       <use xlink:href="#DejaVuSans-74" x="121.638672"/>
       <use xlink:href="#DejaVuSans-75" x="160.847656"/>
       <use xlink:href="#DejaVuSans-61" x="224.226562"/>
       <use xlink:href="#DejaVuSans-74" x="285.505859"/>
       <use xlink:href="#DejaVuSans-6f" x="324.714844"/>
       <use xlink:href="#DejaVuSans-72" x="385.896484"/>
       <use xlink:href="#DejaVuSans-20" x="427.009766"/>
       <use xlink:href="#DejaVuSans-50" x="458.796875"/>
       <use xlink:href="#DejaVuSans-72" x="517.349609"/>
       <use xlink:href="#DejaVuSans-65" x="556.212891"/>
       <use xlink:href="#DejaVuSans-73" x="617.736328"/>
       <use xlink:href="#DejaVuSans-65" x="669.835938"/>
       <use xlink:href="#DejaVuSans-72" x="731.359375"/>
       <use xlink:href="#DejaVuSans-76" x="772.472656"/>
       <use xlink:href="#DejaVuSans-61" x="831.652344"/>
       <use xlink:href="#DejaVuSans-74" x="892.931641"/>
       <use xlink:href="#DejaVuSans-69" x="932.140625"/>
       <use xlink:href="#DejaVuSans-6f" x="959.923828"/>
       <use xlink:href="#DejaVuSans-6e" x="1021.105469"/>
      </g>
     </g>
    </g>
   </g>
   <g id="matplotlib.axis_2">
    <g id="ytick_1">
     <g id="line2d_8">
      <path d="M 187.566655 135.256 
C 191.061206 135.256 194.521777 135.94435 197.750321 137.281657 
C 200.978865 138.618964 203.912595 140.579219 206.383615 143.05024 
C 208.854636 145.521261 210.814892 148.454991 212.152198 151.683535 
C 213.489505 154.912079 214.177855 158.372649 214.177855 161.8672 
C 214.177855 165.361751 213.489505 168.822321 212.152198 172.050865 
C 210.814892 175.279409 208.854636 178.213139 206.383615 180.68416 
C 203.912595 183.155181 200.978865 185.115436 197.750321 186.452743 
C 194.521777 187.79005 191.061206 188.4784 187.566655 188.4784 
C 184.072105 188.4784 180.611534 187.79005 177.38299 186.452743 
C 174.154446 185.115436 171.220716 183.155181 168.749695 180.68416 
C 166.278675 178.213139 164.318419 175.279409 162.981112 172.050865 
C 161.643806 168.822321 160.955455 165.361751 160.955455 161.8672 
C 160.955455 158.372649 161.643806 154.912079 162.981112 151.683535 
C 164.318419 148.454991 166.278675 145.521261 168.749695 143.05024 
C 171.220716 140.579219 174.154446 138.618964 177.38299 137.281657 
C 180.611534 135.94435 184.072105 135.256 187.566655 135.256 
" clip-path="url(#p155dc0ab84)" style="fill: none; stroke: #b0b0b0; stroke-width: 0.8; stroke-linecap: square"/>
     </g>
     <g id="text_8">
      <!-- 0.2 -->
      <g transform="translate(187.566655 133.176312) scale(0.1 -0.1)">
       <defs>
        <path id="DejaVuSans-30" d="M 2034 4250 
Q 1547 4250 1301 3770 
Q 1056 3291 1056 2328 
Q 1056 1369 1301 889 
Q 1547 409 2034 409 
Q 2525 409 2770 889 
Q 3016 1369 3016 2328 
Q 3016 3291 2770 3770 
Q 2525 4250 2034 4250 
z
M 2034 4750 
Q 2819 4750 3233 4129 
Q 3647 3509 3647 2328 
Q 3647 1150 3233 529 
Q 2819 -91 2034 -91 
Q 1250 -91 836 529 
Q 422 1150 422 2328 
Q 422 3509 836 4129 
Q 1250 4750 2034 4750 
z
" transform="scale(0.015625)"/>
        <path id="DejaVuSans-2e" d="M 684 794 
L 1344 794 
L 1344 0 
L 684 0 
L 684 794 
z
" transform="scale(0.015625)"/>
        <path id="DejaVuSans-32" d="M 1228 531 
L 3431 531 
L 3431 0 
L 469 0 
L 469 531 
Q 828 903 1448 1529 
Q 2069 2156 2228 2338 
Q 2531 2678 2651 2914 
Q 2772 3150 2772 3378 
Q 2772 3750 2511 3984 
Q 2250 4219 1831 4219 
Q 1534 4219 1204 4116 
Q 875 4013 500 3803 
L 500 4441 
Q 881 4594 1212 4672 
Q 1544 4750 1819 4750 
Q 2544 4750 2975 4387 
Q 3406 4025 3406 3419 
Q 3406 3131 3298 2873 
Q 3191 2616 2906 2266 
Q 2828 2175 2409 1742 
Q 1991 1309 1228 531 
z
" transform="scale(0.015625)"/>
       </defs>
       <use xlink:href="#DejaVuSans-30"/>
       <use xlink:href="#DejaVuSans-2e" x="63.623047"/>
       <use xlink:href="#DejaVuSans-32" x="95.410156"/>
      </g>
     </g>
    </g>
    <g id="ytick_2">
     <g id="line2d_9">
      <path d="M 187.566655 108.6448 
C 194.555757 108.6448 201.476898 110.021501 207.933986 112.696114 
C 214.391074 115.370727 220.258534 119.291239 225.200575 124.23328 
C 230.142616 129.175321 234.063128 135.042781 236.737741 141.499869 
C 239.412355 147.956957 240.789055 154.878098 240.789055 161.8672 
C 240.789055 168.856302 239.412355 175.777443 236.737741 182.234531 
C 234.063128 188.691619 230.142616 194.559079 225.200575 199.50112 
C 220.258534 204.443161 214.391074 208.363673 207.933986 211.038286 
C 201.476898 213.712899 194.555757 215.0896 187.566655 215.0896 
C 180.577554 215.0896 173.656412 213.712899 167.199325 211.038286 
C 160.742237 208.363673 154.874776 204.443161 149.932735 199.50112 
C 144.990694 194.559079 141.070183 188.691619 138.395569 182.234531 
C 135.720956 175.777443 134.344255 168.856302 134.344255 161.8672 
C 134.344255 154.878098 135.720956 147.956957 138.395569 141.499869 
C 141.070183 135.042781 144.990694 129.175321 149.932735 124.23328 
C 154.874776 119.291239 160.742237 115.370727 167.199325 112.696114 
C 173.656412 110.021501 180.577554 108.6448 187.566655 108.6448 
" clip-path="url(#p155dc0ab84)" style="fill: none; stroke: #b0b0b0; stroke-width: 0.8; stroke-linecap: square"/>
     </g>
     <g id="text_9">
      <!-- 0.4 -->
      <g transform="translate(187.566655 106.565112) scale(0.1 -0.1)">
       <defs>
        <path id="DejaVuSans-34" d="M 2419 4116 
L 825 1625 
L 2419 1625 
L 2419 4116 
z
M 2253 4666 
L 3047 4666 
L 3047 1625 
L 3713 1625 
L 3713 1100 
L 3047 1100 
L 3047 0 
L 2419 0 
L 2419 1100 
L 313 1100 
L 313 1709 
L 2253 4666 
z
" transform="scale(0.015625)"/>
       </defs>
       <use xlink:href="#DejaVuSans-30"/>
       <use xlink:href="#DejaVuSans-2e" x="63.623047"/>
       <use xlink:href="#DejaVuSans-34" x="95.410156"/>
      </g>
     </g>
    </g>
    <g id="ytick_3">
     <g id="line2d_10">
      <path d="M 187.566655 82.0336 
C 198.050308 82.0336 208.43202 84.098651 218.117651 88.110571 
C 227.803283 92.122491 236.604474 98.003258 244.017535 105.41632 
C 251.430597 112.829382 257.311364 121.630572 261.323284 131.316204 
C 265.335204 141.001836 267.400255 151.383548 267.400255 161.8672 
C 267.400255 172.350852 265.335204 182.732564 261.323284 192.418196 
C 257.311364 202.103828 251.430597 210.905018 244.017535 218.31808 
C 236.604474 225.731142 227.803283 231.611909 218.117651 235.623829 
C 208.43202 239.635749 198.050308 241.7008 187.566655 241.7008 
C 177.083003 241.7008 166.701291 239.635749 157.015659 235.623829 
C 147.330027 231.611909 138.528837 225.731142 131.115775 218.31808 
C 123.702714 210.905018 117.821946 202.103828 113.810026 192.418196 
C 109.798106 182.732564 107.733055 172.350852 107.733055 161.8672 
C 107.733055 151.383548 109.798106 141.001836 113.810026 131.316204 
C 117.821946 121.630572 123.702714 112.829382 131.115775 105.41632 
C 138.528837 98.003258 147.330027 92.122491 157.015659 88.110571 
C 166.701291 84.098651 177.083003 82.0336 187.566655 82.0336 
" clip-path="url(#p155dc0ab84)" style="fill: none; stroke: #b0b0b0; stroke-width: 0.8; stroke-linecap: square"/>
     </g>
     <g id="text_10">
      <!-- 0.6 -->
      <g transform="translate(187.566655 79.953912) scale(0.1 -0.1)">
       <defs>
        <path id="DejaVuSans-36" d="M 2113 2584 
Q 1688 2584 1439 2293 
Q 1191 2003 1191 1497 
Q 1191 994 1439 701 
Q 1688 409 2113 409 
Q 2538 409 2786 701 
Q 3034 994 3034 1497 
Q 3034 2003 2786 2293 
Q 2538 2584 2113 2584 
z
M 3366 4563 
L 3366 3988 
Q 3128 4100 2886 4159 
Q 2644 4219 2406 4219 
Q 1781 4219 1451 3797 
Q 1122 3375 1075 2522 
Q 1259 2794 1537 2939 
Q 1816 3084 2150 3084 
Q 2853 3084 3261 2657 
Q 3669 2231 3669 1497 
Q 3669 778 3244 343 
Q 2819 -91 2113 -91 
Q 1303 -91 875 529 
Q 447 1150 447 2328 
Q 447 3434 972 4092 
Q 1497 4750 2381 4750 
Q 2619 4750 2861 4703 
Q 3103 4656 3366 4563 
z
" transform="scale(0.015625)"/>
       </defs>
       <use xlink:href="#DejaVuSans-30"/>
       <use xlink:href="#DejaVuSans-2e" x="63.623047"/>
       <use xlink:href="#DejaVuSans-36" x="95.410156"/>
      </g>
     </g>
    </g>
    <g id="ytick_4">
     <g id="line2d_11">
      <path d="M 187.566655 55.4224 
C 201.544858 55.4224 215.387141 58.175801 228.301317 63.525028 
C 241.215492 68.874255 252.950413 76.715278 262.834495 86.59936 
C 272.718577 96.483442 280.559601 108.218363 285.908827 121.132539 
C 291.258054 134.046714 294.011455 147.888997 294.011455 161.8672 
C 294.011455 175.845403 291.258054 189.687686 285.908827 202.601861 
C 280.559601 215.516037 272.718577 227.250958 262.834495 237.13504 
C 252.950413 247.019122 241.215492 254.860145 228.301317 260.209372 
C 215.387141 265.558599 201.544858 268.312 187.566655 268.312 
C 173.588452 268.312 159.74617 265.558599 146.831994 260.209372 
C 133.917818 254.860145 122.182898 247.019122 112.298815 237.13504 
C 102.414733 227.250958 94.57371 215.516037 89.224483 202.601861 
C 83.875257 189.687686 81.121855 175.845403 81.121855 161.8672 
C 81.121855 147.888997 83.875257 134.046714 89.224483 121.132539 
C 94.57371 108.218363 102.414733 96.483442 112.298815 86.59936 
C 122.182898 76.715278 133.917818 68.874255 146.831994 63.525028 
C 159.74617 58.175801 173.588452 55.4224 187.566655 55.4224 
" clip-path="url(#p155dc0ab84)" style="fill: none; stroke: #b0b0b0; stroke-width: 0.8; stroke-linecap: square"/>
     </g>
     <g id="text_11">
      <!-- 0.8 -->
      <g transform="translate(187.566655 53.342712) scale(0.1 -0.1)">
       <defs>
        <path id="DejaVuSans-38" d="M 2034 2216 
Q 1584 2216 1326 1975 
Q 1069 1734 1069 1313 
Q 1069 891 1326 650 
Q 1584 409 2034 409 
Q 2484 409 2743 651 
Q 3003 894 3003 1313 
Q 3003 1734 2745 1975 
Q 2488 2216 2034 2216 
z
M 1403 2484 
Q 997 2584 770 2862 
Q 544 3141 544 3541 
Q 544 4100 942 4425 
Q 1341 4750 2034 4750 
Q 2731 4750 3128 4425 
Q 3525 4100 3525 3541 
Q 3525 3141 3298 2862 
Q 3072 2584 2669 2484 
Q 3125 2378 3379 2068 
Q 3634 1759 3634 1313 
Q 3634 634 3220 271 
Q 2806 -91 2034 -91 
Q 1263 -91 848 271 
Q 434 634 434 1313 
Q 434 1759 690 2068 
Q 947 2378 1403 2484 
z
M 1172 3481 
Q 1172 3119 1398 2916 
Q 1625 2713 2034 2713 
Q 2441 2713 2670 2916 
Q 2900 3119 2900 3481 
Q 2900 3844 2670 4047 
Q 2441 4250 2034 4250 
Q 1625 4250 1398 4047 
Q 1172 3844 1172 3481 
z
" transform="scale(0.015625)"/>
       </defs>
       <use xlink:href="#DejaVuSans-30"/>
       <use xlink:href="#DejaVuSans-2e" x="63.623047"/>
       <use xlink:href="#DejaVuSans-38" x="95.410156"/>
      </g>
     </g>
    </g>
   </g>
   <g id="line2d_12">
    <path d="M 187.566655 75.3808 
L 291.594025 78.908141 
L 219.996657 169.269136 
L 216.432073 221.806857 
L 129.835821 281.746514 
L 128.650536 175.31442 
L 118.215075 106.561161 
L 187.566655 75.3808 
" clip-path="url(#p155dc0ab84)" style="fill: none; stroke: #1f77b4; stroke-width: 1.5; stroke-linecap: square"/>
   </g>
   <g id="line2d_13">
    <path d="M 187.566655 48.7696 
L 187.566655 161.8672 
L 284.856662 184.073009 
L 216.432073 221.806857 
L 129.835821 281.746514 
L 131.742302 174.608744 
L 142.013911 125.540099 
L 187.566655 48.7696 
" clip-path="url(#p155dc0ab84)" style="fill: none; stroke: #ff7f0e; stroke-width: 1.5; stroke-linecap: square"/>
   </g>
   <g id="line2d_14">
    <path d="M 187.566655 51.234559 
L 233.332908 125.369832 
L 284.856662 184.073009 
L 216.432073 221.806857 
L 129.835821 281.746514 
L 66.943253 189.398704 
L 152.890865 134.21418 
L 187.566655 51.234559 
" clip-path="url(#p155dc0ab84)" style="fill: none; stroke: #2ca02c; stroke-width: 1.5; stroke-linecap: square"/>
   </g>
   <g id="patch_6">
    <path d="M 187.566655 28.8112 
C 170.093901 28.8112 152.791048 32.252952 136.648329 38.939485 
C 120.505609 45.626018 105.836958 55.427297 93.481855 67.7824 
C 81.126753 80.137503 71.325474 94.806154 64.63894 110.948873 
C 57.952407 127.091593 54.510655 144.394446 54.510655 161.8672 
C 54.510655 179.339954 57.952407 196.642807 64.63894 212.785527 
C 71.325474 228.928246 81.126753 243.596897 93.481855 255.952 
C 105.836958 268.307103 120.505609 278.108382 136.648329 284.794915 
C 152.791048 291.481448 170.093901 294.9232 187.566655 294.9232 
C 205.039409 294.9232 222.342262 291.481448 238.484982 284.794915 
C 254.627702 278.108382 269.296352 268.307103 281.651455 255.952 
C 294.006558 243.596897 303.807837 228.928246 310.49437 212.785527 
C 317.180904 196.642807 320.622655 179.339954 320.622655 161.8672 
C 320.622655 144.394446 317.180904 127.091593 310.49437 110.948873 
C 303.807837 94.806154 294.006558 80.137503 281.651455 67.7824 
C 269.296352 55.427297 254.627702 45.626018 238.484982 38.939485 
C 222.342262 32.252952 205.039409 28.8112 187.566655 28.8112 
" style="fill: none; stroke: #000000; stroke-width: 0.8; stroke-linejoin: miter; stroke-linecap: square"/>
   </g>
   <g id="legend_1">
    <g id="patch_7">
     <path d="M 303.233205 54.234375 
L 353.539455 54.234375 
Q 355.539455 54.234375 355.539455 52.234375 
L 355.539455 9.2 
Q 355.539455 7.2 353.539455 7.2 
L 303.233205 7.2 
Q 301.233205 7.2 301.233205 9.2 
L 301.233205 52.234375 
Q 301.233205 54.234375 303.233205 54.234375 
z
" style="fill: #ffffff; opacity: 0.8; stroke: #cccccc; stroke-linejoin: miter"/>
    </g>
    <g id="line2d_15">
     <path d="M 305.233205 15.298437 
L 315.233205 15.298437 
L 325.233205 15.298437 
" style="fill: none; stroke: #1f77b4; stroke-width: 1.5; stroke-linecap: square"/>
    </g>
    <g id="text_12">
     <!-- FLC -->
     <g transform="translate(333.233205 18.798437) scale(0.1 -0.1)">
      <use xlink:href="#DejaVuSans-46"/>
      <use xlink:href="#DejaVuSans-4c" x="57.519531"/>
      <use xlink:href="#DejaVuSans-43" x="113.232422"/>
     </g>
    </g>
    <g id="line2d_16">
     <path d="M 305.233205 29.976562 
L 315.233205 29.976562 
L 325.233205 29.976562 
" style="fill: none; stroke: #ff7f0e; stroke-width: 1.5; stroke-linecap: square"/>
    </g>
    <g id="text_13">
     <!-- PID -->
     <g transform="translate(333.233205 33.476562) scale(0.1 -0.1)">
      <defs>
       <path id="DejaVuSans-49" d="M 628 4666 
L 1259 4666 
L 1259 0 
L 628 0 
L 628 4666 
z
" transform="scale(0.015625)"/>
      </defs>
      <use xlink:href="#DejaVuSans-50"/>
      <use xlink:href="#DejaVuSans-49" x="60.302734"/>
      <use xlink:href="#DejaVuSans-44" x="89.794922"/>
     </g>
    </g>
    <g id="line2d_17">
     <path d="M 305.233205 44.654687 
L 315.233205 44.654687 
L 325.233205 44.654687 
" style="fill: none; stroke: #2ca02c; stroke-width: 1.5; stroke-linecap: square"/>
    </g>
    <g id="text_14">
     <!-- RL -->
     <g transform="translate(333.233205 48.154687) scale(0.1 -0.1)">
      <use xlink:href="#DejaVuSans-52"/>
      <use xlink:href="#DejaVuSans-4c" x="69.482422"/>
     </g>
    </g>
   </g>
  </g>
 </g>
 <defs>
  <clipPath id="p155dc0ab84">
   <path d="M 320.622655 161.8672 
C 320.622655 144.394446 317.180904 127.091593 310.49437 110.948873 
C 303.807837 94.806154 294.006558 80.137503 281.651455 67.7824 
C 269.296352 55.427297 254.627702 45.626018 238.484982 38.939485 
C 222.342262 32.252952 205.039409 28.8112 187.566655 28.8112 
C 170.093901 28.8112 152.791048 32.252952 136.648329 38.939485 
C 120.505609 45.626018 105.836958 55.427297 93.481855 67.7824 
C 81.126753 80.137503 71.325474 94.806154 64.63894 110.948873 
C 57.952407 127.091593 54.510655 144.394446 54.510655 161.8672 
C 54.510655 179.339954 57.952407 196.642807 64.63894 212.785527 
C 71.325474 228.928246 81.126753 243.596897 93.481855 255.952 
C 105.836958 268.307103 120.505609 278.108382 136.648329 284.794915 
C 152.791048 291.481448 170.093901 294.9232 187.566655 294.9232 
C 205.039409 294.9232 222.342262 291.481448 238.484982 284.794915 
C 254.627702 278.108382 269.296352 268.307103 281.651455 255.952 
C 294.006558 243.596897 303.807837 228.928246 310.49437 212.785527 
C 317.180904 196.642807 320.622655 179.339954 320.622655 161.8672 
M 187.566655 161.8672 
C 187.566655 161.8672 187.566655 161.8672 187.566655 161.8672 
C 187.566655 161.8672 187.566655 161.8672 187.566655 161.8672 
C 187.566655 161.8672 187.566655 161.8672 187.566655 161.8672 
C 187.566655 161.8672 187.566655 161.8672 187.566655 161.8672 
C 187.566655 161.8672 187.566655 161.8672 187.566655 161.8672 
C 187.566655 161.8672 187.566655 161.8672 187.566655 161.8672 
C 187.566655 161.8672 187.566655 161.8672 187.566655 161.8672 
C 187.566655 161.8672 187.566655 161.8672 187.566655 161.8672 
C 187.566655 161.8672 187.566655 161.8672 187.566655 161.8672 
C 187.566655 161.8672 187.566655 161.8672 187.566655 161.8672 
C 187.566655 161.8672 187.566655 161.8672 187.566655 161.8672 
C 187.566655 161.8672 187.566655 161.8672 187.566655 161.8672 
C 187.566655 161.8672 187.566655 161.8672 187.566655 161.8672 
C 187.566655 161.8672 187.566655 161.8672 187.566655 161.8672 
C 187.566655 161.8672 187.566655 161.8672 187.566655 161.8672 
C 187.566655 161.8672 187.566655 161.8672 187.566655 161.8672 
z
"/>
  </clipPath>
 </defs>
</svg>
